<svg xmlns="http://www.w3.org/2000/svg" viewBox="0 0 100.37 95.11"><defs><style>.cls-1,.cls-2,.cls-3{fill:#3e5c9a;}.cls-1{opacity:0.8;}.cls-2{opacity:0.7;}.cls-3{opacity:0.85;}.cls-4{fill:#fff;}</style></defs><g id="Layer_2" data-name="Layer 2"><g id="ICON_SET" data-name="ICON SET"><path class="cls-1" d="M67.36,91.81A10,10,0,0,0,76.49,95a13.13,13.13,0,0,0,8.78-6.68c4.06-7.49,1.17-20.88-7.47-18.14C71,72.31,61.77,85.66,67.36,91.81Z"/><path class="cls-2" d="M53.71.89C32.38,10.57,37.06,21.44,31,26.58S.93,38.28,0,46.73s23.35,16.94,31,26.4S27.91,94.08,58.33,88c9.32-1.86,33.78.61,32.57-21.62S72-7.39,53.71.89Z"/><path class="cls-3" d="M5.78,20.7C9.46,5,34,6.36,45.48,12.54c18.38,9.86,28.73,1.43,40.82,3,15.52,2,23.65,47.66-5.11,62.73S34.32,99.85,18.68,85.43c-8.45-7.79-6-24-6.11-34,0-4.34.47-9.09-.7-13.34-1.61-5.8-7.24-9-6.4-15.65A16.13,16.13,0,0,1,5.78,20.7Z"/><path class="cls-4" d="M47.11,78.37H57.62V52.06h7.32l.79-8.8H57.62v-5c0-2.08.41-2.9,2.42-2.9h5.69V26.2H58.45c-7.81,0-11.34,3.44-11.34,10v7H41.65v8.91h5.46Z"/></g></g></svg>