<svg xmlns="http://www.w3.org/2000/svg" viewBox="0 0 90.26 86.54"><defs><style>.cls-1,.cls-2,.cls-3{fill:#cd2129;}.cls-1{opacity:0.8;}.cls-2{opacity:0.7;}.cls-3{opacity:0.85;}.cls-4{fill:#fff;}</style></defs><g id="Layer_2" data-name="Layer 2"><g id="ICON_SET" data-name="ICON SET"><path class="cls-1" d="M63.56,76.4c7.65,2.7,23-8.71,13.16-13.87C69,58.46,50.45,71.79,63.56,76.4Z"/><path class="cls-2" d="M14.07,6c4.86-2.58,10.58-3.84,16.26-4.82C39.44-.38,49.88-1.1,57.17,3.61S66,16.81,69,24.06C72.9,33.38,80.2,41.5,85.21,50.47s7.52,19.81,1.65,28.43A17.45,17.45,0,0,1,77,86c-4.3,1.14-9.5.34-12.43-2.46-1.72-1.65-2.55-3.8-4.19-5.5C56.22,73.82,48.17,73.6,42,75.52S30.49,81,24.49,83.38s-13.65,3.31-19,.07c-5-3-6.27-8.87-5.11-13.87S4.64,60,6.79,55.25A41,41,0,0,0,9,27.82C6.52,18.53,1.89,12.49,14.07,6Z"/><path class="cls-3" d="M29.66,11.19c8.72-2.89,17.81-5.5,27.05-5s18.77,4.65,23,12.31c4.48,8.17,2,18.16-2.09,26.51S67.79,61.13,65.68,70.1c-1.05,4.44-1.34,9.39-4.68,12.71-3,3-8,3.87-12.39,3.12s-8.37-2.85-12.2-5C25.88,75.15,15.35,68.7,8.35,59.37,1.83,50.69-1,38.79,3.21,28.65,7.29,18.92,19.8,14.44,29.66,11.19Z"/><path class="cls-4" d="M33.06,49.28a1,1,0,0,0,1.47-.73c.14-.52.46-1.82.6-2.37a1.43,1.43,0,0,0-.42-1.64,8.47,8.47,0,0,1-1.94-5.77c0-7.44,5.56-14.1,14.49-14.1,7.9,0,12.25,4.83,12.25,11.28,0,8.49-3.76,15.65-9.34,15.65a4.55,4.55,0,0,1-4.64-5.67c.88-3.73,2.6-7.75,2.6-10.44,0-2.41-1.3-4.42-4-4.42-3.15,0-5.68,3.25-5.68,7.62a11.38,11.38,0,0,0,.94,4.66S36.2,57,35.63,59.39c-1.12,4.76-.17,10.59-.09,11.18a.39.39,0,0,0,.7.17c.3-.38,4-5,5.32-9.63C41.92,59.8,43.63,53,43.63,53c1,1.95,4,3.66,7.19,3.66,9.46,0,15.88-8.62,15.88-20.17,0-8.73-7.39-16.86-18.63-16.86-14,0-21,10-21,18.39C27,43.1,29,47.6,33.06,49.28Z"/></g></g></svg>