<svg xmlns="http://www.w3.org/2000/svg" viewBox="0 0 99.25 89.61"><defs><style>.cls-1,.cls-2,.cls-3{fill:#29a9e1;}.cls-1{opacity:0.8;}.cls-2{opacity:0.85;}.cls-3{opacity:0.7;}.cls-4{fill:#fff;}</style></defs><g id="Layer_2" data-name="Layer 2"><g id="ICON_SET" data-name="ICON SET"><path class="cls-1" d="M64.46,89.53a19,19,0,0,0,5.66-.45c3.73-.66,7.51-1.23,11-2.75S87.73,82.2,89,78.64C93.36,66.27,76.35,67,69,68.56,61,70.24,53.42,88.15,64.46,89.53Z"/><path class="cls-2" d="M20.65,6.83C25.41.61,37-3.21,44.35,3.65s18.48,12.57,25,8.45,25.58-5.52,28.19,5.4c6,24.87-3.77,49.45-29.19,57.88-3.74,1.25-8.13,2.72-12.09,2.94-6.89.39-12.52-4.74-19.57-1.28-5,2.47-5.14,9.28-11.44,9.11-12.73-.37-17.47-16.74-14-26.66C18.6,38.21.64,33,20.65,6.83Z"/><path class="cls-3" d="M49.9,1.35C58,.54,66.15,1.06,72,5.31c6.1,4.41,10.26,10.82,14.22,16.89,5.38,8.27,9.74,18,9.69,27.93-.08,15.82,11.82,17.73-11.41,27C61,86.57,43.84,94.93,26.47,71.69,18.85,61.48,23,48.88,4.39,40.49c-11.22-5.06,2-20.76,7.24-25.23A52.37,52.37,0,0,1,34,4.2,134.11,134.11,0,0,1,49.9,1.35Z"/><path class="cls-4" d="M28.52,58A26.74,26.74,0,0,0,43,62.27c17.51,0,27.41-14.8,26.81-28.07a18.84,18.84,0,0,0,4.71-4.88,18.92,18.92,0,0,1-5.42,1.49,9.46,9.46,0,0,0,4.15-5.22,19,19,0,0,1-6,2.29,9.44,9.44,0,0,0-16.08,8.6,26.75,26.75,0,0,1-19.44-9.86,9.45,9.45,0,0,0,2.92,12.6A9.34,9.34,0,0,1,30.37,38a9.44,9.44,0,0,0,7.56,9.37,9.51,9.51,0,0,1-4.26.16,9.45,9.45,0,0,0,8.82,6.55A19,19,0,0,1,28.52,58Z"/></g></g></svg>